<mxfile host="app.diagrams.net" agent="Mozilla/5.0 (Windows NT 10.0; Win64; x64) AppleWebKit/537.36 (KHTML, like Gecko) Chrome/130.0.0.0 Safari/537.36" version="24.8.6">
  <diagram id="C5RBs43oDa-KdzZeNtuy" name="Page-1">
    <mxGraphModel dx="1877" dy="530" grid="1" gridSize="10" guides="1" tooltips="1" connect="1" arrows="1" fold="1" page="1" pageScale="1" pageWidth="827" pageHeight="1169" math="0" shadow="0">
      <root>
        <mxCell id="WIyWlLk6GJQsqaUBKTNV-0" />
        <mxCell id="WIyWlLk6GJQsqaUBKTNV-1" parent="WIyWlLk6GJQsqaUBKTNV-0" />
        <mxCell id="M7CGMbNuYNeq0SnUNNgH-6" value="ทบทวนสัญลักษณ์" style="swimlane;fontFamily=Sarabun;fontSource=https%3A%2F%2Ffonts.googleapis.com%2Fcss%3Ffamily%3DSarabun;" parent="WIyWlLk6GJQsqaUBKTNV-1" vertex="1">
          <mxGeometry x="-720" y="20" width="650" height="290" as="geometry" />
        </mxCell>
        <mxCell id="M7CGMbNuYNeq0SnUNNgH-2" value="&lt;font data-font-src=&quot;https://fonts.googleapis.com/css?family=Sarabun&quot; face=&quot;Sarabun&quot;&gt;เริ่มต้น&lt;/font&gt;" style="ellipse;whiteSpace=wrap;html=1;" parent="M7CGMbNuYNeq0SnUNNgH-6" vertex="1">
          <mxGeometry x="20" y="40" width="130" height="30" as="geometry" />
        </mxCell>
        <mxCell id="M7CGMbNuYNeq0SnUNNgH-5" value="" style="endArrow=classic;html=1;rounded=0;" parent="M7CGMbNuYNeq0SnUNNgH-6" edge="1">
          <mxGeometry width="50" height="50" relative="1" as="geometry">
            <mxPoint x="84.5" y="70" as="sourcePoint" />
            <mxPoint x="84.5" y="120" as="targetPoint" />
          </mxGeometry>
        </mxCell>
        <mxCell id="M7CGMbNuYNeq0SnUNNgH-3" value="&lt;font face=&quot;Sarabun&quot;&gt;สิ้นสุด&lt;/font&gt;" style="ellipse;whiteSpace=wrap;html=1;" parent="M7CGMbNuYNeq0SnUNNgH-6" vertex="1">
          <mxGeometry x="150" y="90" width="130" height="30" as="geometry" />
        </mxCell>
        <mxCell id="M7CGMbNuYNeq0SnUNNgH-4" value="" style="endArrow=classic;html=1;rounded=0;" parent="M7CGMbNuYNeq0SnUNNgH-6" edge="1">
          <mxGeometry width="50" height="50" relative="1" as="geometry">
            <mxPoint x="214.5" y="40" as="sourcePoint" />
            <mxPoint x="214.5" y="90" as="targetPoint" />
          </mxGeometry>
        </mxCell>
        <mxCell id="mvioNwK95yMqdUQ73LqQ-0" value="กระบวนการ" style="rounded=0;whiteSpace=wrap;html=1;fontFamily=Sarabun;fontSource=https%3A%2F%2Ffonts.googleapis.com%2Fcss%3Ffamily%3DSarabun;" parent="M7CGMbNuYNeq0SnUNNgH-6" vertex="1">
          <mxGeometry x="320" y="70" width="120" height="30" as="geometry" />
        </mxCell>
        <mxCell id="mvioNwK95yMqdUQ73LqQ-1" value="" style="endArrow=classic;html=1;rounded=0;" parent="M7CGMbNuYNeq0SnUNNgH-6" edge="1">
          <mxGeometry width="50" height="50" relative="1" as="geometry">
            <mxPoint x="379" y="40" as="sourcePoint" />
            <mxPoint x="379.5" y="70" as="targetPoint" />
          </mxGeometry>
        </mxCell>
        <mxCell id="mvioNwK95yMqdUQ73LqQ-2" value="" style="endArrow=classic;html=1;rounded=0;" parent="M7CGMbNuYNeq0SnUNNgH-6" edge="1">
          <mxGeometry width="50" height="50" relative="1" as="geometry">
            <mxPoint x="379.75" y="100" as="sourcePoint" />
            <mxPoint x="380.25" y="130" as="targetPoint" />
          </mxGeometry>
        </mxCell>
        <mxCell id="mvioNwK95yMqdUQ73LqQ-3" value="ประโยคเงื่อนไข" style="rhombus;whiteSpace=wrap;html=1;fontFamily=Sarabun;fontSource=https%3A%2F%2Ffonts.googleapis.com%2Fcss%3Ffamily%3DSarabun;" parent="M7CGMbNuYNeq0SnUNNgH-6" vertex="1">
          <mxGeometry x="490" y="60" width="100" height="60" as="geometry" />
        </mxCell>
        <mxCell id="mvioNwK95yMqdUQ73LqQ-4" value="" style="endArrow=classic;html=1;rounded=0;" parent="M7CGMbNuYNeq0SnUNNgH-6" edge="1">
          <mxGeometry width="50" height="50" relative="1" as="geometry">
            <mxPoint x="539.71" y="30" as="sourcePoint" />
            <mxPoint x="540.21" y="60" as="targetPoint" />
          </mxGeometry>
        </mxCell>
        <mxCell id="mvioNwK95yMqdUQ73LqQ-5" value="" style="endArrow=classic;html=1;rounded=0;" parent="M7CGMbNuYNeq0SnUNNgH-6" edge="1">
          <mxGeometry width="50" height="50" relative="1" as="geometry">
            <mxPoint x="539.71" y="120" as="sourcePoint" />
            <mxPoint x="540" y="175" as="targetPoint" />
          </mxGeometry>
        </mxCell>
        <mxCell id="mvioNwK95yMqdUQ73LqQ-7" value="จริง" style="edgeLabel;html=1;align=center;verticalAlign=middle;resizable=0;points=[];fontFamily=Sarabun;fontSource=https%3A%2F%2Ffonts.googleapis.com%2Fcss%3Ffamily%3DSarabun;" parent="mvioNwK95yMqdUQ73LqQ-5" vertex="1" connectable="0">
          <mxGeometry x="-0.4142" y="-1" relative="1" as="geometry">
            <mxPoint as="offset" />
          </mxGeometry>
        </mxCell>
        <mxCell id="mvioNwK95yMqdUQ73LqQ-6" value="" style="endArrow=classic;html=1;rounded=0;exitX=1;exitY=0.5;exitDx=0;exitDy=0;" parent="M7CGMbNuYNeq0SnUNNgH-6" source="mvioNwK95yMqdUQ73LqQ-3" edge="1">
          <mxGeometry width="50" height="50" relative="1" as="geometry">
            <mxPoint x="620" y="95" as="sourcePoint" />
            <mxPoint x="610" y="175" as="targetPoint" />
            <Array as="points">
              <mxPoint x="610" y="90" />
            </Array>
          </mxGeometry>
        </mxCell>
        <mxCell id="mvioNwK95yMqdUQ73LqQ-8" value="&lt;font data-font-src=&quot;https://fonts.googleapis.com/css?family=Sarabun&quot; face=&quot;Sarabun&quot;&gt;เท็จ&lt;/font&gt;" style="edgeLabel;html=1;align=center;verticalAlign=middle;resizable=0;points=[];" parent="mvioNwK95yMqdUQ73LqQ-6" vertex="1" connectable="0">
          <mxGeometry x="-0.0019" y="-2" relative="1" as="geometry">
            <mxPoint as="offset" />
          </mxGeometry>
        </mxCell>
        <mxCell id="mvioNwK95yMqdUQ73LqQ-9" value="&lt;font data-font-src=&quot;https://fonts.googleapis.com/css?family=Sarabun&quot; face=&quot;Sarabun&quot;&gt;ฟังก์ชัน/โมดูล&lt;/font&gt;" style="shape=process;whiteSpace=wrap;html=1;backgroundOutline=1;" parent="M7CGMbNuYNeq0SnUNNgH-6" vertex="1">
          <mxGeometry x="25" y="180" width="120" height="30" as="geometry" />
        </mxCell>
        <mxCell id="mvioNwK95yMqdUQ73LqQ-11" value="" style="endArrow=classic;html=1;rounded=0;" parent="M7CGMbNuYNeq0SnUNNgH-6" edge="1">
          <mxGeometry width="50" height="50" relative="1" as="geometry">
            <mxPoint x="84.70999999999998" y="150" as="sourcePoint" />
            <mxPoint x="85.20999999999998" y="180" as="targetPoint" />
          </mxGeometry>
        </mxCell>
        <mxCell id="mvioNwK95yMqdUQ73LqQ-12" value="" style="endArrow=classic;html=1;rounded=0;" parent="M7CGMbNuYNeq0SnUNNgH-6" edge="1">
          <mxGeometry width="50" height="50" relative="1" as="geometry">
            <mxPoint x="84.70999999999998" y="210" as="sourcePoint" />
            <mxPoint x="85.20999999999998" y="240" as="targetPoint" />
          </mxGeometry>
        </mxCell>
        <mxCell id="mvioNwK95yMqdUQ73LqQ-13" value="" style="strokeWidth=2;html=1;shape=mxgraph.flowchart.start_2;whiteSpace=wrap;" parent="M7CGMbNuYNeq0SnUNNgH-6" vertex="1">
          <mxGeometry x="205" y="185" width="20" height="20" as="geometry" />
        </mxCell>
        <mxCell id="mvioNwK95yMqdUQ73LqQ-16" value="" style="endArrow=classic;html=1;rounded=0;" parent="M7CGMbNuYNeq0SnUNNgH-6" edge="1">
          <mxGeometry width="50" height="50" relative="1" as="geometry">
            <mxPoint x="214.70999999999998" y="155" as="sourcePoint" />
            <mxPoint x="215.20999999999998" y="185" as="targetPoint" />
          </mxGeometry>
        </mxCell>
        <mxCell id="mvioNwK95yMqdUQ73LqQ-17" value="" style="endArrow=classic;html=1;rounded=0;entryX=0;entryY=0.5;entryDx=0;entryDy=0;entryPerimeter=0;" parent="M7CGMbNuYNeq0SnUNNgH-6" target="mvioNwK95yMqdUQ73LqQ-13" edge="1">
          <mxGeometry width="50" height="50" relative="1" as="geometry">
            <mxPoint x="189.99999999999997" y="155" as="sourcePoint" />
            <mxPoint x="190.49999999999997" y="185" as="targetPoint" />
            <Array as="points">
              <mxPoint x="190" y="180" />
            </Array>
          </mxGeometry>
        </mxCell>
        <mxCell id="mvioNwK95yMqdUQ73LqQ-18" value="" style="endArrow=classic;html=1;rounded=0;entryX=1;entryY=0.5;entryDx=0;entryDy=0;entryPerimeter=0;" parent="M7CGMbNuYNeq0SnUNNgH-6" target="mvioNwK95yMqdUQ73LqQ-13" edge="1">
          <mxGeometry width="50" height="50" relative="1" as="geometry">
            <mxPoint x="239.99999999999997" y="155" as="sourcePoint" />
            <mxPoint x="240.49999999999997" y="185" as="targetPoint" />
            <Array as="points">
              <mxPoint x="240" y="180" />
            </Array>
          </mxGeometry>
        </mxCell>
        <mxCell id="mvioNwK95yMqdUQ73LqQ-19" value="" style="endArrow=classic;html=1;rounded=0;" parent="M7CGMbNuYNeq0SnUNNgH-6" edge="1">
          <mxGeometry width="50" height="50" relative="1" as="geometry">
            <mxPoint x="214.70999999999998" y="205" as="sourcePoint" />
            <mxPoint x="215.20999999999998" y="235" as="targetPoint" />
          </mxGeometry>
        </mxCell>
        <mxCell id="mvioNwK95yMqdUQ73LqQ-20" value="&lt;font data-font-src=&quot;https://fonts.googleapis.com/css?family=Sarabun&quot; face=&quot;Sarabun&quot;&gt;ตัวเชื่อม&lt;/font&gt;" style="text;html=1;align=center;verticalAlign=middle;resizable=0;points=[];autosize=1;strokeColor=none;fillColor=none;" parent="M7CGMbNuYNeq0SnUNNgH-6" vertex="1">
          <mxGeometry x="220" y="190" width="60" height="30" as="geometry" />
        </mxCell>
        <mxCell id="mvioNwK95yMqdUQ73LqQ-25" value="" style="endArrow=classic;html=1;rounded=0;" parent="M7CGMbNuYNeq0SnUNNgH-6" edge="1">
          <mxGeometry width="50" height="50" relative="1" as="geometry">
            <mxPoint x="353.71" y="165" as="sourcePoint" />
            <mxPoint x="354.21" y="195" as="targetPoint" />
          </mxGeometry>
        </mxCell>
        <mxCell id="mvioNwK95yMqdUQ73LqQ-21" value="" style="verticalLabelPosition=bottom;verticalAlign=top;html=1;shape=offPageConnector;rounded=0;size=0.5;" parent="M7CGMbNuYNeq0SnUNNgH-6" vertex="1">
          <mxGeometry x="339" y="195" width="30" height="30" as="geometry" />
        </mxCell>
        <mxCell id="mvioNwK95yMqdUQ73LqQ-26" value="" style="endArrow=classic;html=1;rounded=0;" parent="M7CGMbNuYNeq0SnUNNgH-6" edge="1">
          <mxGeometry width="50" height="50" relative="1" as="geometry">
            <mxPoint x="405.71" y="195" as="sourcePoint" />
            <mxPoint x="406.21" y="225" as="targetPoint" />
          </mxGeometry>
        </mxCell>
        <mxCell id="mvioNwK95yMqdUQ73LqQ-27" value="" style="verticalLabelPosition=bottom;verticalAlign=top;html=1;shape=offPageConnector;rounded=0;size=0.5;" parent="M7CGMbNuYNeq0SnUNNgH-6" vertex="1">
          <mxGeometry x="391" y="165" width="30" height="30" as="geometry" />
        </mxCell>
        <mxCell id="mvioNwK95yMqdUQ73LqQ-28" value="หน้าต่อไป" style="text;html=1;align=center;verticalAlign=middle;resizable=0;points=[];autosize=1;strokeColor=none;fillColor=none;fontFamily=Sarabun;fontSource=https%3A%2F%2Ffonts.googleapis.com%2Fcss%3Ffamily%3DSarabun;" parent="M7CGMbNuYNeq0SnUNNgH-6" vertex="1">
          <mxGeometry x="345" y="220" width="70" height="30" as="geometry" />
        </mxCell>
        <mxCell id="mvioNwK95yMqdUQ73LqQ-29" value="ก" style="text;html=1;align=center;verticalAlign=middle;resizable=0;points=[];autosize=1;strokeColor=none;fillColor=none;fontFamily=Sarabun;fontSource=https%3A%2F%2Ffonts.googleapis.com%2Fcss%3Ffamily%3DSarabun;" parent="M7CGMbNuYNeq0SnUNNgH-6" vertex="1">
          <mxGeometry x="339" y="190" width="30" height="30" as="geometry" />
        </mxCell>
        <mxCell id="mvioNwK95yMqdUQ73LqQ-30" value="ก" style="text;html=1;align=center;verticalAlign=middle;resizable=0;points=[];autosize=1;strokeColor=none;fillColor=none;fontFamily=Sarabun;fontSource=https%3A%2F%2Ffonts.googleapis.com%2Fcss%3Ffamily%3DSarabun;" parent="M7CGMbNuYNeq0SnUNNgH-6" vertex="1">
          <mxGeometry x="391" y="160" width="30" height="30" as="geometry" />
        </mxCell>
        <mxCell id="mvioNwK95yMqdUQ73LqQ-32" value="แสดงผล/รับค่า" style="shape=parallelogram;perimeter=parallelogramPerimeter;whiteSpace=wrap;html=1;fixedSize=1;fontFamily=Sarabun;fontSource=https%3A%2F%2Ffonts.googleapis.com%2Fcss%3Ffamily%3DSarabun;" parent="M7CGMbNuYNeq0SnUNNgH-6" vertex="1">
          <mxGeometry x="450" y="210" width="120" height="30" as="geometry" />
        </mxCell>
        <mxCell id="mvioNwK95yMqdUQ73LqQ-33" value="" style="endArrow=classic;html=1;rounded=0;" parent="M7CGMbNuYNeq0SnUNNgH-6" edge="1">
          <mxGeometry width="50" height="50" relative="1" as="geometry">
            <mxPoint x="509.71" y="180" as="sourcePoint" />
            <mxPoint x="510.21" y="210" as="targetPoint" />
          </mxGeometry>
        </mxCell>
        <mxCell id="mvioNwK95yMqdUQ73LqQ-34" value="" style="endArrow=classic;html=1;rounded=0;" parent="M7CGMbNuYNeq0SnUNNgH-6" edge="1">
          <mxGeometry width="50" height="50" relative="1" as="geometry">
            <mxPoint x="509.71" y="240" as="sourcePoint" />
            <mxPoint x="510.21" y="270" as="targetPoint" />
          </mxGeometry>
        </mxCell>
        <mxCell id="mvioNwK95yMqdUQ73LqQ-36" value="แก้ไขโจทย์ปัญหา" style="swimlane;fontFamily=Sarabun;fontSource=https%3A%2F%2Ffonts.googleapis.com%2Fcss%3Ffamily%3DSarabun;" parent="WIyWlLk6GJQsqaUBKTNV-1" vertex="1">
          <mxGeometry x="-752.5" y="650" width="705" height="1670" as="geometry" />
        </mxCell>
        <mxCell id="imLgn8KYVoRMbCnDIqJF-96" style="edgeStyle=orthogonalEdgeStyle;rounded=0;orthogonalLoop=1;jettySize=auto;html=1;exitX=0.5;exitY=1;exitDx=0;exitDy=0;entryX=0.5;entryY=0;entryDx=0;entryDy=0;" edge="1" parent="mvioNwK95yMqdUQ73LqQ-36" source="mvioNwK95yMqdUQ73LqQ-35" target="imLgn8KYVoRMbCnDIqJF-81">
          <mxGeometry relative="1" as="geometry" />
        </mxCell>
        <mxCell id="mvioNwK95yMqdUQ73LqQ-35" value="&lt;font data-font-src=&quot;https://fonts.googleapis.com/css?family=Sarabun&quot; face=&quot;Sarabun&quot;&gt;เริ่มต้น&lt;/font&gt;" style="ellipse;whiteSpace=wrap;html=1;" parent="mvioNwK95yMqdUQ73LqQ-36" vertex="1">
          <mxGeometry x="107.5" y="40" width="130" height="30" as="geometry" />
        </mxCell>
        <mxCell id="mvioNwK95yMqdUQ73LqQ-69" value="&lt;font face=&quot;Sarabun&quot;&gt;สิ้นสุด&lt;/font&gt;" style="ellipse;whiteSpace=wrap;html=1;" parent="mvioNwK95yMqdUQ73LqQ-36" vertex="1">
          <mxGeometry x="107.5" y="1350" width="130" height="30" as="geometry" />
        </mxCell>
        <mxCell id="imLgn8KYVoRMbCnDIqJF-0" value="หาตลาดซื้อของ" style="rounded=0;whiteSpace=wrap;html=1;" vertex="1" parent="mvioNwK95yMqdUQ73LqQ-36">
          <mxGeometry x="127.5" y="270" width="90" height="20" as="geometry" />
        </mxCell>
        <mxCell id="imLgn8KYVoRMbCnDIqJF-7" value="false" style="edgeStyle=orthogonalEdgeStyle;rounded=0;orthogonalLoop=1;jettySize=auto;html=1;entryX=0;entryY=0.5;entryDx=0;entryDy=0;exitX=0;exitY=0.5;exitDx=0;exitDy=0;" edge="1" parent="mvioNwK95yMqdUQ73LqQ-36" source="imLgn8KYVoRMbCnDIqJF-3" target="imLgn8KYVoRMbCnDIqJF-0">
          <mxGeometry relative="1" as="geometry">
            <mxPoint x="92.5" y="270" as="targetPoint" />
            <Array as="points">
              <mxPoint x="107.5" y="335" />
              <mxPoint x="107.5" y="280" />
            </Array>
          </mxGeometry>
        </mxCell>
        <mxCell id="imLgn8KYVoRMbCnDIqJF-3" value="มีบะหมี่ให้ซื้อ" style="rhombus;whiteSpace=wrap;html=1;" vertex="1" parent="mvioNwK95yMqdUQ73LqQ-36">
          <mxGeometry x="132.5" y="310" width="80" height="50" as="geometry" />
        </mxCell>
        <mxCell id="imLgn8KYVoRMbCnDIqJF-4" value="ซื้อบะหมี่" style="rounded=0;whiteSpace=wrap;html=1;" vertex="1" parent="mvioNwK95yMqdUQ73LqQ-36">
          <mxGeometry x="147.5" y="380" width="50" height="20" as="geometry" />
        </mxCell>
        <mxCell id="imLgn8KYVoRMbCnDIqJF-13" value="true" style="endArrow=classic;html=1;rounded=0;entryX=0.5;entryY=0;entryDx=0;entryDy=0;" edge="1" parent="mvioNwK95yMqdUQ73LqQ-36" target="imLgn8KYVoRMbCnDIqJF-4">
          <mxGeometry width="50" height="50" relative="1" as="geometry">
            <mxPoint x="172.5" y="360" as="sourcePoint" />
            <mxPoint x="182.5" y="400" as="targetPoint" />
          </mxGeometry>
        </mxCell>
        <mxCell id="imLgn8KYVoRMbCnDIqJF-14" value="" style="endArrow=classic;html=1;rounded=0;entryX=0.5;entryY=0;entryDx=0;entryDy=0;exitX=0.5;exitY=1;exitDx=0;exitDy=0;" edge="1" parent="mvioNwK95yMqdUQ73LqQ-36" source="imLgn8KYVoRMbCnDIqJF-0" target="imLgn8KYVoRMbCnDIqJF-3">
          <mxGeometry width="50" height="50" relative="1" as="geometry">
            <mxPoint x="132.5" y="450" as="sourcePoint" />
            <mxPoint x="182.5" y="400" as="targetPoint" />
          </mxGeometry>
        </mxCell>
        <mxCell id="imLgn8KYVoRMbCnDIqJF-15" value="ออกจากบ้าน" style="rounded=0;whiteSpace=wrap;html=1;" vertex="1" parent="mvioNwK95yMqdUQ73LqQ-36">
          <mxGeometry x="137.5" y="230" width="70" height="20" as="geometry" />
        </mxCell>
        <mxCell id="imLgn8KYVoRMbCnDIqJF-21" value="" style="endArrow=classic;html=1;rounded=0;entryX=0.5;entryY=0;entryDx=0;entryDy=0;exitX=0.5;exitY=1;exitDx=0;exitDy=0;" edge="1" parent="mvioNwK95yMqdUQ73LqQ-36" source="imLgn8KYVoRMbCnDIqJF-15" target="imLgn8KYVoRMbCnDIqJF-0">
          <mxGeometry width="50" height="50" relative="1" as="geometry">
            <mxPoint x="132.5" y="410" as="sourcePoint" />
            <mxPoint x="182.5" y="360" as="targetPoint" />
          </mxGeometry>
        </mxCell>
        <mxCell id="imLgn8KYVoRMbCnDIqJF-22" value="กลับบ้าน" style="rounded=0;whiteSpace=wrap;html=1;" vertex="1" parent="mvioNwK95yMqdUQ73LqQ-36">
          <mxGeometry x="147.5" y="420" width="50" height="20" as="geometry" />
        </mxCell>
        <mxCell id="imLgn8KYVoRMbCnDIqJF-23" value="" style="endArrow=classic;html=1;rounded=0;entryX=0.5;entryY=0;entryDx=0;entryDy=0;exitX=0.5;exitY=1;exitDx=0;exitDy=0;" edge="1" parent="mvioNwK95yMqdUQ73LqQ-36" source="imLgn8KYVoRMbCnDIqJF-4" target="imLgn8KYVoRMbCnDIqJF-22">
          <mxGeometry width="50" height="50" relative="1" as="geometry">
            <mxPoint x="132.5" y="420" as="sourcePoint" />
            <mxPoint x="182.5" y="370" as="targetPoint" />
          </mxGeometry>
        </mxCell>
        <mxCell id="imLgn8KYVoRMbCnDIqJF-63" style="edgeStyle=orthogonalEdgeStyle;rounded=0;orthogonalLoop=1;jettySize=auto;html=1;exitX=0.5;exitY=1;exitDx=0;exitDy=0;entryX=0.5;entryY=0;entryDx=0;entryDy=0;" edge="1" parent="mvioNwK95yMqdUQ73LqQ-36" source="imLgn8KYVoRMbCnDIqJF-25" target="imLgn8KYVoRMbCnDIqJF-61">
          <mxGeometry relative="1" as="geometry" />
        </mxCell>
        <mxCell id="imLgn8KYVoRMbCnDIqJF-25" value="เตรียมต้มบะหมี่" style="shape=process;whiteSpace=wrap;html=1;backgroundOutline=1;" vertex="1" parent="mvioNwK95yMqdUQ73LqQ-36">
          <mxGeometry x="117.5" y="460" width="110" height="20" as="geometry" />
        </mxCell>
        <mxCell id="imLgn8KYVoRMbCnDIqJF-26" value="" style="endArrow=classic;html=1;rounded=0;entryX=0.5;entryY=0;entryDx=0;entryDy=0;exitX=0.5;exitY=1;exitDx=0;exitDy=0;" edge="1" parent="mvioNwK95yMqdUQ73LqQ-36" source="imLgn8KYVoRMbCnDIqJF-22" target="imLgn8KYVoRMbCnDIqJF-25">
          <mxGeometry width="50" height="50" relative="1" as="geometry">
            <mxPoint x="132.5" y="420" as="sourcePoint" />
            <mxPoint x="182.5" y="370" as="targetPoint" />
          </mxGeometry>
        </mxCell>
        <mxCell id="imLgn8KYVoRMbCnDIqJF-27" value="เริ่มต้น" style="ellipse;whiteSpace=wrap;html=1;" vertex="1" parent="mvioNwK95yMqdUQ73LqQ-36">
          <mxGeometry x="317.5" y="270" width="120" height="30" as="geometry" />
        </mxCell>
        <mxCell id="imLgn8KYVoRMbCnDIqJF-28" value="เตรียมหม้อต้ม" style="rounded=0;whiteSpace=wrap;html=1;" vertex="1" parent="mvioNwK95yMqdUQ73LqQ-36">
          <mxGeometry x="337.5" y="320" width="80" height="20" as="geometry" />
        </mxCell>
        <mxCell id="imLgn8KYVoRMbCnDIqJF-45" style="edgeStyle=orthogonalEdgeStyle;rounded=0;orthogonalLoop=1;jettySize=auto;html=1;exitX=0.5;exitY=1;exitDx=0;exitDy=0;entryX=0.5;entryY=0;entryDx=0;entryDy=0;" edge="1" parent="mvioNwK95yMqdUQ73LqQ-36" source="imLgn8KYVoRMbCnDIqJF-29" target="imLgn8KYVoRMbCnDIqJF-42">
          <mxGeometry relative="1" as="geometry" />
        </mxCell>
        <mxCell id="imLgn8KYVoRMbCnDIqJF-29" value="เติ่มน้ำให้หม้อต้ม" style="rounded=0;whiteSpace=wrap;html=1;" vertex="1" parent="mvioNwK95yMqdUQ73LqQ-36">
          <mxGeometry x="332.5" y="360" width="90" height="20" as="geometry" />
        </mxCell>
        <mxCell id="imLgn8KYVoRMbCnDIqJF-33" value="false" style="edgeStyle=orthogonalEdgeStyle;rounded=0;orthogonalLoop=1;jettySize=auto;html=1;exitX=1;exitY=0.5;exitDx=0;exitDy=0;" edge="1" parent="mvioNwK95yMqdUQ73LqQ-36" source="imLgn8KYVoRMbCnDIqJF-30" target="imLgn8KYVoRMbCnDIqJF-31">
          <mxGeometry relative="1" as="geometry" />
        </mxCell>
        <mxCell id="imLgn8KYVoRMbCnDIqJF-58" value="true" style="edgeStyle=orthogonalEdgeStyle;rounded=0;orthogonalLoop=1;jettySize=auto;html=1;exitX=0.5;exitY=1;exitDx=0;exitDy=0;entryX=0.5;entryY=0;entryDx=0;entryDy=0;" edge="1" parent="mvioNwK95yMqdUQ73LqQ-36" source="imLgn8KYVoRMbCnDIqJF-30" target="imLgn8KYVoRMbCnDIqJF-57">
          <mxGeometry relative="1" as="geometry" />
        </mxCell>
        <mxCell id="imLgn8KYVoRMbCnDIqJF-30" value="น้ำพอดี" style="rhombus;whiteSpace=wrap;html=1;" vertex="1" parent="mvioNwK95yMqdUQ73LqQ-36">
          <mxGeometry x="337.5" y="420" width="80" height="40" as="geometry" />
        </mxCell>
        <mxCell id="imLgn8KYVoRMbCnDIqJF-39" value="true" style="edgeStyle=orthogonalEdgeStyle;rounded=0;orthogonalLoop=1;jettySize=auto;html=1;" edge="1" parent="mvioNwK95yMqdUQ73LqQ-36" source="imLgn8KYVoRMbCnDIqJF-31" target="imLgn8KYVoRMbCnDIqJF-38">
          <mxGeometry relative="1" as="geometry" />
        </mxCell>
        <mxCell id="imLgn8KYVoRMbCnDIqJF-50" value="false" style="edgeStyle=orthogonalEdgeStyle;rounded=0;orthogonalLoop=1;jettySize=auto;html=1;exitX=1;exitY=0.5;exitDx=0;exitDy=0;entryX=0.5;entryY=0;entryDx=0;entryDy=0;" edge="1" parent="mvioNwK95yMqdUQ73LqQ-36" source="imLgn8KYVoRMbCnDIqJF-31" target="imLgn8KYVoRMbCnDIqJF-47">
          <mxGeometry relative="1" as="geometry" />
        </mxCell>
        <mxCell id="imLgn8KYVoRMbCnDIqJF-31" value="น้ำเกิน" style="rhombus;whiteSpace=wrap;html=1;" vertex="1" parent="mvioNwK95yMqdUQ73LqQ-36">
          <mxGeometry x="417.5" y="460" width="80" height="40" as="geometry" />
        </mxCell>
        <mxCell id="imLgn8KYVoRMbCnDIqJF-35" value="" style="endArrow=classic;html=1;rounded=0;entryX=0.5;entryY=0;entryDx=0;entryDy=0;exitX=0.5;exitY=1;exitDx=0;exitDy=0;" edge="1" parent="mvioNwK95yMqdUQ73LqQ-36" source="imLgn8KYVoRMbCnDIqJF-27" target="imLgn8KYVoRMbCnDIqJF-28">
          <mxGeometry width="50" height="50" relative="1" as="geometry">
            <mxPoint x="332.5" y="420" as="sourcePoint" />
            <mxPoint x="382.5" y="370" as="targetPoint" />
          </mxGeometry>
        </mxCell>
        <mxCell id="imLgn8KYVoRMbCnDIqJF-36" value="" style="endArrow=classic;html=1;rounded=0;entryX=0.5;entryY=0;entryDx=0;entryDy=0;exitX=0.5;exitY=1;exitDx=0;exitDy=0;" edge="1" parent="mvioNwK95yMqdUQ73LqQ-36" source="imLgn8KYVoRMbCnDIqJF-28" target="imLgn8KYVoRMbCnDIqJF-29">
          <mxGeometry width="50" height="50" relative="1" as="geometry">
            <mxPoint x="332.5" y="420" as="sourcePoint" />
            <mxPoint x="382.5" y="370" as="targetPoint" />
          </mxGeometry>
        </mxCell>
        <mxCell id="imLgn8KYVoRMbCnDIqJF-55" style="edgeStyle=orthogonalEdgeStyle;rounded=0;orthogonalLoop=1;jettySize=auto;html=1;exitX=0.5;exitY=1;exitDx=0;exitDy=0;entryX=0;entryY=0.5;entryDx=0;entryDy=0;" edge="1" parent="mvioNwK95yMqdUQ73LqQ-36" source="imLgn8KYVoRMbCnDIqJF-38" target="imLgn8KYVoRMbCnDIqJF-51">
          <mxGeometry relative="1" as="geometry">
            <mxPoint x="502.5" y="560" as="targetPoint" />
            <Array as="points">
              <mxPoint x="457.5" y="555" />
            </Array>
          </mxGeometry>
        </mxCell>
        <mxCell id="imLgn8KYVoRMbCnDIqJF-38" value="เทน้ำออก" style="whiteSpace=wrap;html=1;" vertex="1" parent="mvioNwK95yMqdUQ73LqQ-36">
          <mxGeometry x="430" y="520" width="55" height="20" as="geometry" />
        </mxCell>
        <mxCell id="imLgn8KYVoRMbCnDIqJF-46" style="edgeStyle=orthogonalEdgeStyle;rounded=0;orthogonalLoop=1;jettySize=auto;html=1;exitX=0.5;exitY=1;exitDx=0;exitDy=0;entryX=0.5;entryY=0;entryDx=0;entryDy=0;" edge="1" parent="mvioNwK95yMqdUQ73LqQ-36" source="imLgn8KYVoRMbCnDIqJF-42" target="imLgn8KYVoRMbCnDIqJF-30">
          <mxGeometry relative="1" as="geometry" />
        </mxCell>
        <mxCell id="imLgn8KYVoRMbCnDIqJF-42" value="" style="ellipse;whiteSpace=wrap;html=1;aspect=fixed;" vertex="1" parent="mvioNwK95yMqdUQ73LqQ-36">
          <mxGeometry x="372.5" y="390" width="10" height="10" as="geometry" />
        </mxCell>
        <mxCell id="imLgn8KYVoRMbCnDIqJF-54" style="edgeStyle=orthogonalEdgeStyle;rounded=0;orthogonalLoop=1;jettySize=auto;html=1;exitX=0.5;exitY=1;exitDx=0;exitDy=0;entryX=0.5;entryY=0;entryDx=0;entryDy=0;" edge="1" parent="mvioNwK95yMqdUQ73LqQ-36" source="imLgn8KYVoRMbCnDIqJF-47" target="imLgn8KYVoRMbCnDIqJF-51">
          <mxGeometry relative="1" as="geometry" />
        </mxCell>
        <mxCell id="imLgn8KYVoRMbCnDIqJF-47" value="เติมน้ำ" style="whiteSpace=wrap;html=1;" vertex="1" parent="mvioNwK95yMqdUQ73LqQ-36">
          <mxGeometry x="497.5" y="520" width="40" height="20" as="geometry" />
        </mxCell>
        <mxCell id="imLgn8KYVoRMbCnDIqJF-56" style="edgeStyle=orthogonalEdgeStyle;rounded=0;orthogonalLoop=1;jettySize=auto;html=1;exitX=1;exitY=0.5;exitDx=0;exitDy=0;entryX=1;entryY=0.5;entryDx=0;entryDy=0;" edge="1" parent="mvioNwK95yMqdUQ73LqQ-36" source="imLgn8KYVoRMbCnDIqJF-51" target="imLgn8KYVoRMbCnDIqJF-42">
          <mxGeometry relative="1" as="geometry">
            <mxPoint x="552.5" y="400" as="targetPoint" />
          </mxGeometry>
        </mxCell>
        <mxCell id="imLgn8KYVoRMbCnDIqJF-51" value="" style="ellipse;whiteSpace=wrap;html=1;aspect=fixed;" vertex="1" parent="mvioNwK95yMqdUQ73LqQ-36">
          <mxGeometry x="512.5" y="550" width="10" height="10" as="geometry" />
        </mxCell>
        <mxCell id="imLgn8KYVoRMbCnDIqJF-57" value="สิ้นสุด" style="ellipse;whiteSpace=wrap;html=1;" vertex="1" parent="mvioNwK95yMqdUQ73LqQ-36">
          <mxGeometry x="317.5" y="540" width="120" height="30" as="geometry" />
        </mxCell>
        <mxCell id="imLgn8KYVoRMbCnDIqJF-59" value="" style="swimlane;startSize=0;" vertex="1" parent="mvioNwK95yMqdUQ73LqQ-36">
          <mxGeometry x="307.5" y="260" width="245" height="320" as="geometry" />
        </mxCell>
        <mxCell id="imLgn8KYVoRMbCnDIqJF-60" value="" style="endArrow=none;dashed=1;html=1;rounded=0;exitX=-0.013;exitY=0.659;exitDx=0;exitDy=0;exitPerimeter=0;entryX=1;entryY=0.5;entryDx=0;entryDy=0;" edge="1" parent="mvioNwK95yMqdUQ73LqQ-36" source="imLgn8KYVoRMbCnDIqJF-59" target="imLgn8KYVoRMbCnDIqJF-25">
          <mxGeometry width="50" height="50" relative="1" as="geometry">
            <mxPoint x="432.5" y="430" as="sourcePoint" />
            <mxPoint x="482.5" y="380" as="targetPoint" />
          </mxGeometry>
        </mxCell>
        <mxCell id="imLgn8KYVoRMbCnDIqJF-65" style="edgeStyle=orthogonalEdgeStyle;rounded=0;orthogonalLoop=1;jettySize=auto;html=1;exitX=0.5;exitY=1;exitDx=0;exitDy=0;entryX=0.5;entryY=0;entryDx=0;entryDy=0;" edge="1" parent="mvioNwK95yMqdUQ73LqQ-36" source="imLgn8KYVoRMbCnDIqJF-61" target="imLgn8KYVoRMbCnDIqJF-64">
          <mxGeometry relative="1" as="geometry" />
        </mxCell>
        <mxCell id="imLgn8KYVoRMbCnDIqJF-61" value="เปิดแก็ส" style="rounded=0;whiteSpace=wrap;html=1;" vertex="1" parent="mvioNwK95yMqdUQ73LqQ-36">
          <mxGeometry x="147.5" y="500" width="50" height="20" as="geometry" />
        </mxCell>
        <mxCell id="imLgn8KYVoRMbCnDIqJF-69" value="false" style="edgeStyle=orthogonalEdgeStyle;rounded=0;orthogonalLoop=1;jettySize=auto;html=1;exitX=1;exitY=0.5;exitDx=0;exitDy=0;entryX=0.5;entryY=0;entryDx=0;entryDy=0;" edge="1" parent="mvioNwK95yMqdUQ73LqQ-36" source="imLgn8KYVoRMbCnDIqJF-64" target="imLgn8KYVoRMbCnDIqJF-66">
          <mxGeometry relative="1" as="geometry" />
        </mxCell>
        <mxCell id="imLgn8KYVoRMbCnDIqJF-71" value="true" style="edgeStyle=orthogonalEdgeStyle;rounded=0;orthogonalLoop=1;jettySize=auto;html=1;exitX=0.5;exitY=1;exitDx=0;exitDy=0;entryX=0.5;entryY=0;entryDx=0;entryDy=0;" edge="1" parent="mvioNwK95yMqdUQ73LqQ-36" source="imLgn8KYVoRMbCnDIqJF-64" target="imLgn8KYVoRMbCnDIqJF-70">
          <mxGeometry relative="1" as="geometry" />
        </mxCell>
        <mxCell id="imLgn8KYVoRMbCnDIqJF-64" value="มีแก็สอยู่" style="rhombus;whiteSpace=wrap;html=1;" vertex="1" parent="mvioNwK95yMqdUQ73LqQ-36">
          <mxGeometry x="132.5" y="535" width="80" height="35" as="geometry" />
        </mxCell>
        <mxCell id="imLgn8KYVoRMbCnDIqJF-68" value="" style="edgeStyle=orthogonalEdgeStyle;rounded=0;orthogonalLoop=1;jettySize=auto;html=1;" edge="1" parent="mvioNwK95yMqdUQ73LqQ-36" source="imLgn8KYVoRMbCnDIqJF-66" target="imLgn8KYVoRMbCnDIqJF-67">
          <mxGeometry relative="1" as="geometry" />
        </mxCell>
        <mxCell id="imLgn8KYVoRMbCnDIqJF-66" value="หาซื้อแก็ส" style="rounded=0;whiteSpace=wrap;html=1;" vertex="1" parent="mvioNwK95yMqdUQ73LqQ-36">
          <mxGeometry x="207.5" y="570" width="60" height="20" as="geometry" />
        </mxCell>
        <mxCell id="imLgn8KYVoRMbCnDIqJF-72" style="edgeStyle=orthogonalEdgeStyle;rounded=0;orthogonalLoop=1;jettySize=auto;html=1;exitX=0.5;exitY=1;exitDx=0;exitDy=0;entryX=1;entryY=0.5;entryDx=0;entryDy=0;" edge="1" parent="mvioNwK95yMqdUQ73LqQ-36" source="imLgn8KYVoRMbCnDIqJF-67" target="imLgn8KYVoRMbCnDIqJF-70">
          <mxGeometry relative="1" as="geometry">
            <Array as="points">
              <mxPoint x="237.5" y="645" />
            </Array>
          </mxGeometry>
        </mxCell>
        <mxCell id="imLgn8KYVoRMbCnDIqJF-67" value="ขนแก็สกลับบ้าน" style="rounded=0;whiteSpace=wrap;html=1;" vertex="1" parent="mvioNwK95yMqdUQ73LqQ-36">
          <mxGeometry x="192.5" y="610" width="90" height="20" as="geometry" />
        </mxCell>
        <mxCell id="imLgn8KYVoRMbCnDIqJF-78" style="edgeStyle=orthogonalEdgeStyle;rounded=0;orthogonalLoop=1;jettySize=auto;html=1;exitX=0.5;exitY=1;exitDx=0;exitDy=0;entryX=0.5;entryY=0;entryDx=0;entryDy=0;" edge="1" parent="mvioNwK95yMqdUQ73LqQ-36" source="imLgn8KYVoRMbCnDIqJF-70" target="imLgn8KYVoRMbCnDIqJF-77">
          <mxGeometry relative="1" as="geometry" />
        </mxCell>
        <mxCell id="imLgn8KYVoRMbCnDIqJF-70" value="" style="ellipse;whiteSpace=wrap;html=1;aspect=fixed;" vertex="1" parent="mvioNwK95yMqdUQ73LqQ-36">
          <mxGeometry x="167.5" y="640" width="10" height="10" as="geometry" />
        </mxCell>
        <mxCell id="imLgn8KYVoRMbCnDIqJF-80" style="edgeStyle=orthogonalEdgeStyle;rounded=0;orthogonalLoop=1;jettySize=auto;html=1;exitX=0.5;exitY=1;exitDx=0;exitDy=0;entryX=0.5;entryY=0;entryDx=0;entryDy=0;" edge="1" parent="mvioNwK95yMqdUQ73LqQ-36" source="imLgn8KYVoRMbCnDIqJF-77" target="imLgn8KYVoRMbCnDIqJF-79">
          <mxGeometry relative="1" as="geometry" />
        </mxCell>
        <mxCell id="imLgn8KYVoRMbCnDIqJF-77" value="เปิดเตา" style="rounded=0;whiteSpace=wrap;html=1;" vertex="1" parent="mvioNwK95yMqdUQ73LqQ-36">
          <mxGeometry x="152.5" y="669" width="40" height="20" as="geometry" />
        </mxCell>
        <mxCell id="imLgn8KYVoRMbCnDIqJF-91" style="edgeStyle=orthogonalEdgeStyle;rounded=0;orthogonalLoop=1;jettySize=auto;html=1;exitX=0.5;exitY=1;exitDx=0;exitDy=0;entryX=0.5;entryY=0;entryDx=0;entryDy=0;" edge="1" parent="mvioNwK95yMqdUQ73LqQ-36" source="imLgn8KYVoRMbCnDIqJF-79" target="imLgn8KYVoRMbCnDIqJF-90">
          <mxGeometry relative="1" as="geometry" />
        </mxCell>
        <mxCell id="imLgn8KYVoRMbCnDIqJF-79" value="รอน้ำเดือด" style="rounded=0;whiteSpace=wrap;html=1;" vertex="1" parent="mvioNwK95yMqdUQ73LqQ-36">
          <mxGeometry x="142.5" y="710" width="60" height="19" as="geometry" />
        </mxCell>
        <mxCell id="imLgn8KYVoRMbCnDIqJF-85" style="edgeStyle=orthogonalEdgeStyle;rounded=0;orthogonalLoop=1;jettySize=auto;html=1;exitX=0.5;exitY=1;exitDx=0;exitDy=0;entryX=0.5;entryY=0;entryDx=0;entryDy=0;" edge="1" parent="mvioNwK95yMqdUQ73LqQ-36" source="imLgn8KYVoRMbCnDIqJF-81" target="imLgn8KYVoRMbCnDIqJF-84">
          <mxGeometry relative="1" as="geometry" />
        </mxCell>
        <mxCell id="imLgn8KYVoRMbCnDIqJF-81" value="เตรียมเงิน" style="rounded=0;whiteSpace=wrap;html=1;" vertex="1" parent="mvioNwK95yMqdUQ73LqQ-36">
          <mxGeometry x="142.5" y="80" width="60" height="20" as="geometry" />
        </mxCell>
        <mxCell id="imLgn8KYVoRMbCnDIqJF-87" value="false" style="edgeStyle=orthogonalEdgeStyle;rounded=0;orthogonalLoop=1;jettySize=auto;html=1;exitX=1;exitY=0.5;exitDx=0;exitDy=0;entryX=0;entryY=0.5;entryDx=0;entryDy=0;" edge="1" parent="mvioNwK95yMqdUQ73LqQ-36" source="imLgn8KYVoRMbCnDIqJF-82" target="imLgn8KYVoRMbCnDIqJF-83">
          <mxGeometry relative="1" as="geometry">
            <Array as="points" />
          </mxGeometry>
        </mxCell>
        <mxCell id="imLgn8KYVoRMbCnDIqJF-89" value="true" style="edgeStyle=orthogonalEdgeStyle;rounded=0;orthogonalLoop=1;jettySize=auto;html=1;exitX=0.5;exitY=1;exitDx=0;exitDy=0;entryX=0.5;entryY=0;entryDx=0;entryDy=0;" edge="1" parent="mvioNwK95yMqdUQ73LqQ-36" source="imLgn8KYVoRMbCnDIqJF-82" target="imLgn8KYVoRMbCnDIqJF-15">
          <mxGeometry relative="1" as="geometry" />
        </mxCell>
        <mxCell id="imLgn8KYVoRMbCnDIqJF-82" value="เงินเท่าหรือมากกว่าค่าคาดการณ์" style="rhombus;whiteSpace=wrap;html=1;" vertex="1" parent="mvioNwK95yMqdUQ73LqQ-36">
          <mxGeometry x="77.5" y="150" width="190" height="60" as="geometry" />
        </mxCell>
        <mxCell id="imLgn8KYVoRMbCnDIqJF-88" style="edgeStyle=orthogonalEdgeStyle;rounded=0;orthogonalLoop=1;jettySize=auto;html=1;exitX=1;exitY=0.5;exitDx=0;exitDy=0;entryX=1;entryY=0.5;entryDx=0;entryDy=0;" edge="1" parent="mvioNwK95yMqdUQ73LqQ-36" source="imLgn8KYVoRMbCnDIqJF-83" target="imLgn8KYVoRMbCnDIqJF-84">
          <mxGeometry relative="1" as="geometry">
            <Array as="points">
              <mxPoint x="367.5" y="180" />
              <mxPoint x="367.5" y="125" />
            </Array>
          </mxGeometry>
        </mxCell>
        <mxCell id="imLgn8KYVoRMbCnDIqJF-83" value="หาเงินเพิ่ม" style="rounded=0;whiteSpace=wrap;html=1;" vertex="1" parent="mvioNwK95yMqdUQ73LqQ-36">
          <mxGeometry x="302.5" y="170" width="60" height="20" as="geometry" />
        </mxCell>
        <mxCell id="imLgn8KYVoRMbCnDIqJF-86" style="edgeStyle=orthogonalEdgeStyle;rounded=0;orthogonalLoop=1;jettySize=auto;html=1;exitX=0.5;exitY=1;exitDx=0;exitDy=0;entryX=0.5;entryY=0;entryDx=0;entryDy=0;" edge="1" parent="mvioNwK95yMqdUQ73LqQ-36" source="imLgn8KYVoRMbCnDIqJF-84" target="imLgn8KYVoRMbCnDIqJF-82">
          <mxGeometry relative="1" as="geometry" />
        </mxCell>
        <mxCell id="imLgn8KYVoRMbCnDIqJF-84" value="" style="ellipse;whiteSpace=wrap;html=1;aspect=fixed;" vertex="1" parent="mvioNwK95yMqdUQ73LqQ-36">
          <mxGeometry x="167.5" y="120" width="10" height="10" as="geometry" />
        </mxCell>
        <mxCell id="imLgn8KYVoRMbCnDIqJF-93" style="edgeStyle=orthogonalEdgeStyle;rounded=0;orthogonalLoop=1;jettySize=auto;html=1;exitX=0.5;exitY=1;exitDx=0;exitDy=0;entryX=0.5;entryY=0;entryDx=0;entryDy=0;" edge="1" parent="mvioNwK95yMqdUQ73LqQ-36" source="imLgn8KYVoRMbCnDIqJF-90" target="imLgn8KYVoRMbCnDIqJF-92">
          <mxGeometry relative="1" as="geometry" />
        </mxCell>
        <mxCell id="imLgn8KYVoRMbCnDIqJF-90" value="ใส่บะหมี่" style="rounded=0;whiteSpace=wrap;html=1;" vertex="1" parent="mvioNwK95yMqdUQ73LqQ-36">
          <mxGeometry x="147.5" y="750" width="50" height="20" as="geometry" />
        </mxCell>
        <mxCell id="imLgn8KYVoRMbCnDIqJF-113" value="true" style="edgeStyle=orthogonalEdgeStyle;rounded=0;orthogonalLoop=1;jettySize=auto;html=1;exitX=0.5;exitY=1;exitDx=0;exitDy=0;entryX=0.5;entryY=0;entryDx=0;entryDy=0;" edge="1" parent="mvioNwK95yMqdUQ73LqQ-36" source="imLgn8KYVoRMbCnDIqJF-92" target="imLgn8KYVoRMbCnDIqJF-112">
          <mxGeometry relative="1" as="geometry" />
        </mxCell>
        <mxCell id="imLgn8KYVoRMbCnDIqJF-115" value="false" style="edgeStyle=orthogonalEdgeStyle;rounded=0;orthogonalLoop=1;jettySize=auto;html=1;entryX=0;entryY=0.5;entryDx=0;entryDy=0;" edge="1" parent="mvioNwK95yMqdUQ73LqQ-36" source="imLgn8KYVoRMbCnDIqJF-92" target="imLgn8KYVoRMbCnDIqJF-116">
          <mxGeometry relative="1" as="geometry">
            <mxPoint x="237.5" y="815" as="targetPoint" />
          </mxGeometry>
        </mxCell>
        <mxCell id="imLgn8KYVoRMbCnDIqJF-92" value="มีเครื่องปรุง" style="rhombus;whiteSpace=wrap;html=1;" vertex="1" parent="mvioNwK95yMqdUQ73LqQ-36">
          <mxGeometry x="132.5" y="790" width="80" height="50" as="geometry" />
        </mxCell>
        <mxCell id="imLgn8KYVoRMbCnDIqJF-111" style="edgeStyle=orthogonalEdgeStyle;rounded=0;orthogonalLoop=1;jettySize=auto;html=1;exitX=0.5;exitY=1;exitDx=0;exitDy=0;entryX=0.5;entryY=0;entryDx=0;entryDy=0;" edge="1" parent="mvioNwK95yMqdUQ73LqQ-36" source="imLgn8KYVoRMbCnDIqJF-94" target="imLgn8KYVoRMbCnDIqJF-110">
          <mxGeometry relative="1" as="geometry" />
        </mxCell>
        <mxCell id="imLgn8KYVoRMbCnDIqJF-94" value="ซื้อเครื่องปรุง" style="rounded=0;whiteSpace=wrap;html=1;" vertex="1" parent="mvioNwK95yMqdUQ73LqQ-36">
          <mxGeometry x="397.5" y="995" width="70" height="20" as="geometry" />
        </mxCell>
        <mxCell id="imLgn8KYVoRMbCnDIqJF-108" style="edgeStyle=orthogonalEdgeStyle;rounded=0;orthogonalLoop=1;jettySize=auto;html=1;exitX=0.5;exitY=1;exitDx=0;exitDy=0;entryX=0.5;entryY=0;entryDx=0;entryDy=0;" edge="1" parent="mvioNwK95yMqdUQ73LqQ-36" source="imLgn8KYVoRMbCnDIqJF-98" target="imLgn8KYVoRMbCnDIqJF-94">
          <mxGeometry relative="1" as="geometry" />
        </mxCell>
        <mxCell id="imLgn8KYVoRMbCnDIqJF-98" value="ออกจากบ้าน" style="rounded=0;whiteSpace=wrap;html=1;" vertex="1" parent="mvioNwK95yMqdUQ73LqQ-36">
          <mxGeometry x="397.5" y="955" width="70" height="20" as="geometry" />
        </mxCell>
        <mxCell id="imLgn8KYVoRMbCnDIqJF-99" style="edgeStyle=orthogonalEdgeStyle;rounded=0;orthogonalLoop=1;jettySize=auto;html=1;exitX=0.5;exitY=1;exitDx=0;exitDy=0;entryX=0.5;entryY=0;entryDx=0;entryDy=0;" edge="1" source="imLgn8KYVoRMbCnDIqJF-100" target="imLgn8KYVoRMbCnDIqJF-107" parent="mvioNwK95yMqdUQ73LqQ-36">
          <mxGeometry relative="1" as="geometry" />
        </mxCell>
        <mxCell id="imLgn8KYVoRMbCnDIqJF-100" value="เตรียมเงิน" style="rounded=0;whiteSpace=wrap;html=1;" vertex="1" parent="mvioNwK95yMqdUQ73LqQ-36">
          <mxGeometry x="402.5" y="805" width="60" height="20" as="geometry" />
        </mxCell>
        <mxCell id="imLgn8KYVoRMbCnDIqJF-101" value="false" style="edgeStyle=orthogonalEdgeStyle;rounded=0;orthogonalLoop=1;jettySize=auto;html=1;exitX=1;exitY=0.5;exitDx=0;exitDy=0;entryX=0;entryY=0.5;entryDx=0;entryDy=0;" edge="1" source="imLgn8KYVoRMbCnDIqJF-103" target="imLgn8KYVoRMbCnDIqJF-105" parent="mvioNwK95yMqdUQ73LqQ-36">
          <mxGeometry relative="1" as="geometry">
            <Array as="points" />
          </mxGeometry>
        </mxCell>
        <mxCell id="imLgn8KYVoRMbCnDIqJF-102" value="true" style="edgeStyle=orthogonalEdgeStyle;rounded=0;orthogonalLoop=1;jettySize=auto;html=1;exitX=0.5;exitY=1;exitDx=0;exitDy=0;entryX=0.5;entryY=0;entryDx=0;entryDy=0;" edge="1" source="imLgn8KYVoRMbCnDIqJF-103" target="imLgn8KYVoRMbCnDIqJF-98" parent="mvioNwK95yMqdUQ73LqQ-36">
          <mxGeometry relative="1" as="geometry" />
        </mxCell>
        <mxCell id="imLgn8KYVoRMbCnDIqJF-103" value="เงินเท่าหรือมากกว่าค่าคาดการณ์" style="rhombus;whiteSpace=wrap;html=1;" vertex="1" parent="mvioNwK95yMqdUQ73LqQ-36">
          <mxGeometry x="337.5" y="875" width="190" height="60" as="geometry" />
        </mxCell>
        <mxCell id="imLgn8KYVoRMbCnDIqJF-104" style="edgeStyle=orthogonalEdgeStyle;rounded=0;orthogonalLoop=1;jettySize=auto;html=1;exitX=1;exitY=0.5;exitDx=0;exitDy=0;entryX=1;entryY=0.5;entryDx=0;entryDy=0;" edge="1" source="imLgn8KYVoRMbCnDIqJF-105" target="imLgn8KYVoRMbCnDIqJF-107" parent="mvioNwK95yMqdUQ73LqQ-36">
          <mxGeometry relative="1" as="geometry">
            <Array as="points">
              <mxPoint x="627.5" y="905" />
              <mxPoint x="627.5" y="850" />
            </Array>
          </mxGeometry>
        </mxCell>
        <mxCell id="imLgn8KYVoRMbCnDIqJF-105" value="หาเงินเพิ่ม" style="rounded=0;whiteSpace=wrap;html=1;" vertex="1" parent="mvioNwK95yMqdUQ73LqQ-36">
          <mxGeometry x="562.5" y="895" width="60" height="20" as="geometry" />
        </mxCell>
        <mxCell id="imLgn8KYVoRMbCnDIqJF-106" style="edgeStyle=orthogonalEdgeStyle;rounded=0;orthogonalLoop=1;jettySize=auto;html=1;exitX=0.5;exitY=1;exitDx=0;exitDy=0;entryX=0.5;entryY=0;entryDx=0;entryDy=0;" edge="1" source="imLgn8KYVoRMbCnDIqJF-107" target="imLgn8KYVoRMbCnDIqJF-103" parent="mvioNwK95yMqdUQ73LqQ-36">
          <mxGeometry relative="1" as="geometry" />
        </mxCell>
        <mxCell id="imLgn8KYVoRMbCnDIqJF-107" value="" style="ellipse;whiteSpace=wrap;html=1;aspect=fixed;" vertex="1" parent="mvioNwK95yMqdUQ73LqQ-36">
          <mxGeometry x="427.5" y="845" width="10" height="10" as="geometry" />
        </mxCell>
        <mxCell id="imLgn8KYVoRMbCnDIqJF-121" style="edgeStyle=orthogonalEdgeStyle;rounded=0;orthogonalLoop=1;jettySize=auto;html=1;exitX=0.5;exitY=1;exitDx=0;exitDy=0;entryX=0.5;entryY=0;entryDx=0;entryDy=0;" edge="1" parent="mvioNwK95yMqdUQ73LqQ-36" source="imLgn8KYVoRMbCnDIqJF-110" target="imLgn8KYVoRMbCnDIqJF-120">
          <mxGeometry relative="1" as="geometry" />
        </mxCell>
        <mxCell id="imLgn8KYVoRMbCnDIqJF-110" value="กลับบ้าน" style="rounded=0;whiteSpace=wrap;html=1;" vertex="1" parent="mvioNwK95yMqdUQ73LqQ-36">
          <mxGeometry x="407.5" y="1035" width="50" height="20" as="geometry" />
        </mxCell>
        <mxCell id="imLgn8KYVoRMbCnDIqJF-127" style="edgeStyle=orthogonalEdgeStyle;rounded=0;orthogonalLoop=1;jettySize=auto;html=1;exitX=0.5;exitY=1;exitDx=0;exitDy=0;entryX=0.5;entryY=0;entryDx=0;entryDy=0;" edge="1" parent="mvioNwK95yMqdUQ73LqQ-36" source="imLgn8KYVoRMbCnDIqJF-112" target="imLgn8KYVoRMbCnDIqJF-126">
          <mxGeometry relative="1" as="geometry" />
        </mxCell>
        <mxCell id="imLgn8KYVoRMbCnDIqJF-112" value="" style="ellipse;whiteSpace=wrap;html=1;aspect=fixed;" vertex="1" parent="mvioNwK95yMqdUQ73LqQ-36">
          <mxGeometry x="167.5" y="1160" width="10" height="10" as="geometry" />
        </mxCell>
        <mxCell id="imLgn8KYVoRMbCnDIqJF-118" style="edgeStyle=orthogonalEdgeStyle;rounded=0;orthogonalLoop=1;jettySize=auto;html=1;exitX=1;exitY=0.5;exitDx=0;exitDy=0;entryX=0;entryY=0.5;entryDx=0;entryDy=0;" edge="1" parent="mvioNwK95yMqdUQ73LqQ-36" source="imLgn8KYVoRMbCnDIqJF-116" target="imLgn8KYVoRMbCnDIqJF-117">
          <mxGeometry relative="1" as="geometry" />
        </mxCell>
        <mxCell id="imLgn8KYVoRMbCnDIqJF-116" value="ปิดเตา" style="rounded=0;whiteSpace=wrap;html=1;" vertex="1" parent="mvioNwK95yMqdUQ73LqQ-36">
          <mxGeometry x="257.5" y="802.5" width="45" height="25" as="geometry" />
        </mxCell>
        <mxCell id="imLgn8KYVoRMbCnDIqJF-119" style="edgeStyle=orthogonalEdgeStyle;rounded=0;orthogonalLoop=1;jettySize=auto;html=1;exitX=1;exitY=0.5;exitDx=0;exitDy=0;entryX=0;entryY=0.5;entryDx=0;entryDy=0;" edge="1" parent="mvioNwK95yMqdUQ73LqQ-36" source="imLgn8KYVoRMbCnDIqJF-117" target="imLgn8KYVoRMbCnDIqJF-100">
          <mxGeometry relative="1" as="geometry" />
        </mxCell>
        <mxCell id="imLgn8KYVoRMbCnDIqJF-117" value="ปิดแก็ส" style="rounded=0;whiteSpace=wrap;html=1;" vertex="1" parent="mvioNwK95yMqdUQ73LqQ-36">
          <mxGeometry x="327.5" y="805" width="50" height="20" as="geometry" />
        </mxCell>
        <mxCell id="imLgn8KYVoRMbCnDIqJF-123" style="edgeStyle=orthogonalEdgeStyle;rounded=0;orthogonalLoop=1;jettySize=auto;html=1;exitX=0.5;exitY=1;exitDx=0;exitDy=0;entryX=0.5;entryY=0;entryDx=0;entryDy=0;" edge="1" parent="mvioNwK95yMqdUQ73LqQ-36" source="imLgn8KYVoRMbCnDIqJF-120" target="imLgn8KYVoRMbCnDIqJF-122">
          <mxGeometry relative="1" as="geometry" />
        </mxCell>
        <mxCell id="imLgn8KYVoRMbCnDIqJF-120" value="เปิดแก็ส" style="rounded=0;whiteSpace=wrap;html=1;" vertex="1" parent="mvioNwK95yMqdUQ73LqQ-36">
          <mxGeometry x="407.5" y="1080" width="50" height="20" as="geometry" />
        </mxCell>
        <mxCell id="imLgn8KYVoRMbCnDIqJF-125" style="edgeStyle=orthogonalEdgeStyle;rounded=0;orthogonalLoop=1;jettySize=auto;html=1;exitX=0.5;exitY=1;exitDx=0;exitDy=0;entryX=1;entryY=0.5;entryDx=0;entryDy=0;" edge="1" parent="mvioNwK95yMqdUQ73LqQ-36" source="imLgn8KYVoRMbCnDIqJF-122" target="imLgn8KYVoRMbCnDIqJF-112">
          <mxGeometry relative="1" as="geometry" />
        </mxCell>
        <mxCell id="imLgn8KYVoRMbCnDIqJF-122" value="เปิดเตา" style="rounded=0;whiteSpace=wrap;html=1;" vertex="1" parent="mvioNwK95yMqdUQ73LqQ-36">
          <mxGeometry x="407.5" y="1120" width="50" height="20" as="geometry" />
        </mxCell>
        <mxCell id="imLgn8KYVoRMbCnDIqJF-129" style="edgeStyle=orthogonalEdgeStyle;rounded=0;orthogonalLoop=1;jettySize=auto;html=1;exitX=0.5;exitY=1;exitDx=0;exitDy=0;entryX=0.5;entryY=0;entryDx=0;entryDy=0;" edge="1" parent="mvioNwK95yMqdUQ73LqQ-36" source="imLgn8KYVoRMbCnDIqJF-126" target="imLgn8KYVoRMbCnDIqJF-128">
          <mxGeometry relative="1" as="geometry" />
        </mxCell>
        <mxCell id="imLgn8KYVoRMbCnDIqJF-126" value="ใส่เครื่องปรุง" style="rounded=0;whiteSpace=wrap;html=1;" vertex="1" parent="mvioNwK95yMqdUQ73LqQ-36">
          <mxGeometry x="137.5" y="1190" width="70" height="20" as="geometry" />
        </mxCell>
        <mxCell id="imLgn8KYVoRMbCnDIqJF-131" style="edgeStyle=orthogonalEdgeStyle;rounded=0;orthogonalLoop=1;jettySize=auto;html=1;exitX=0.5;exitY=1;exitDx=0;exitDy=0;entryX=0.5;entryY=0;entryDx=0;entryDy=0;" edge="1" parent="mvioNwK95yMqdUQ73LqQ-36" source="imLgn8KYVoRMbCnDIqJF-128" target="imLgn8KYVoRMbCnDIqJF-130">
          <mxGeometry relative="1" as="geometry" />
        </mxCell>
        <mxCell id="imLgn8KYVoRMbCnDIqJF-128" value="รอต้มให้เสร็จ" style="rounded=0;whiteSpace=wrap;html=1;" vertex="1" parent="mvioNwK95yMqdUQ73LqQ-36">
          <mxGeometry x="137.5" y="1230" width="70" height="20" as="geometry" />
        </mxCell>
        <mxCell id="imLgn8KYVoRMbCnDIqJF-133" style="edgeStyle=orthogonalEdgeStyle;rounded=0;orthogonalLoop=1;jettySize=auto;html=1;exitX=0.5;exitY=1;exitDx=0;exitDy=0;entryX=0.5;entryY=0;entryDx=0;entryDy=0;" edge="1" parent="mvioNwK95yMqdUQ73LqQ-36" source="imLgn8KYVoRMbCnDIqJF-130" target="imLgn8KYVoRMbCnDIqJF-132">
          <mxGeometry relative="1" as="geometry" />
        </mxCell>
        <mxCell id="imLgn8KYVoRMbCnDIqJF-130" value="เทบะหมี่ใส่ถ้วย" style="rounded=0;whiteSpace=wrap;html=1;" vertex="1" parent="mvioNwK95yMqdUQ73LqQ-36">
          <mxGeometry x="132.5" y="1270" width="80" height="20" as="geometry" />
        </mxCell>
        <mxCell id="imLgn8KYVoRMbCnDIqJF-134" style="edgeStyle=orthogonalEdgeStyle;rounded=0;orthogonalLoop=1;jettySize=auto;html=1;exitX=0.5;exitY=1;exitDx=0;exitDy=0;" edge="1" parent="mvioNwK95yMqdUQ73LqQ-36" source="imLgn8KYVoRMbCnDIqJF-132" target="mvioNwK95yMqdUQ73LqQ-69">
          <mxGeometry relative="1" as="geometry" />
        </mxCell>
        <mxCell id="imLgn8KYVoRMbCnDIqJF-132" value="เสิร์ฟบะหมี่" style="rounded=0;whiteSpace=wrap;html=1;" vertex="1" parent="mvioNwK95yMqdUQ73LqQ-36">
          <mxGeometry x="142.5" y="1310" width="60" height="20" as="geometry" />
        </mxCell>
        <mxCell id="mvioNwK95yMqdUQ73LqQ-70" value="&lt;font data-font-src=&quot;https://fonts.googleapis.com/css?family=Sarabun&quot; face=&quot;Sarabun&quot;&gt;โจทย์ปัญหา&lt;/font&gt;" style="swimlane;whiteSpace=wrap;html=1;" parent="WIyWlLk6GJQsqaUBKTNV-1" vertex="1">
          <mxGeometry x="-732.5" y="320" width="665" height="310" as="geometry" />
        </mxCell>
        <mxCell id="mvioNwK95yMqdUQ73LqQ-71" value="&lt;p style=&quot;line-height: 120%;&quot;&gt;&lt;font data-font-src=&quot;https://fonts.googleapis.com/css?family=Sarabun&quot; face=&quot;Sarabun&quot; style=&quot;font-size: 14px;&quot;&gt;&lt;b&gt;&lt;u&gt;โจทย์&lt;/u&gt;&lt;/b&gt; จงเขียน Flowchart เพื่อแสดงขั้นตอนการต้มบะหมี่กึ่งสำเร็จรูป (โดยผู้อ่าน Flowchart คือน้องของคุณ&lt;br&gt;&amp;nbsp; &amp;nbsp; &amp;nbsp; &amp;nbsp; &amp;nbsp; ที่มีอายุ 5 ขวบและกำลังหยิบ Flowchart มาต้มมาม่าให้คุณรับประทาน โดยคุณจะไม่พูดอะไรกับน้องเลย)&lt;br&gt;&lt;/font&gt;&lt;br&gt;&lt;/p&gt;&lt;p style=&quot;line-height: 120%;&quot;&gt;&lt;font face=&quot;Sarabun&quot;&gt;&lt;b&gt;&lt;u&gt;หมายเหตุ&lt;/u&gt;&lt;/b&gt; ทุกขั้นตอนควรมีการอธิบายอย่างละเอียด และเตรียมแก้ไขสำหรับเหตุการณ์ที่อาจผิดพลาดในทุกขั้นตอน&lt;br&gt;&amp;nbsp; &amp;nbsp; &amp;nbsp; &amp;nbsp; &amp;nbsp; เช่น&lt;br&gt;&amp;nbsp; &amp;nbsp; &amp;nbsp; &amp;nbsp; &amp;nbsp; - กรณีให้น้องไปซื้อของที่ตลาด แต่ของหมด ควรดำเนินการอย่างไร?&lt;br&gt;&amp;nbsp; &amp;nbsp; &amp;nbsp; &amp;nbsp; &amp;nbsp; - กรณีให้น้องต้มน้ำ แต่น้ำยังไม่เดือด ควรใส่บะหมี่สำเร็จรูปลงไปเลยไหม&lt;br&gt;&amp;nbsp; &amp;nbsp; &amp;nbsp; &amp;nbsp; &amp;nbsp; - กรณีระหว่างทำกับข้าวแล้วแก้สหมด ควรดำเนินการอย่างไร?&lt;br&gt;&amp;nbsp; &amp;nbsp; &amp;nbsp; &amp;nbsp; &amp;nbsp; - กรณีน้องไปซื้อของ แต่จำนวนเงินไม่พอ ควรทำอย่างไร?&lt;br&gt;&amp;nbsp; &amp;nbsp; &amp;nbsp; &amp;nbsp; &amp;nbsp; - กรณีน้องต้มบะหมี่เสร็จ แต่พึ่งมาทราบภายหลังว่าในซองบะหมี่ไม่มีเครื่องปรุงมาด้วย ต้องทำอย่างไร?&lt;/font&gt;&lt;/p&gt;" style="text;html=1;align=left;verticalAlign=top;resizable=0;points=[];autosize=1;strokeColor=none;fillColor=none;fontSize=14;" parent="mvioNwK95yMqdUQ73LqQ-70" vertex="1">
          <mxGeometry x="15" y="20" width="650" height="240" as="geometry" />
        </mxCell>
      </root>
    </mxGraphModel>
  </diagram>
</mxfile>
